<svg xmlns="http://www.w3.org/2000/svg" viewBox="0 0 658.9041137695312 483.0475769042969">
       <g transform="translate(-182.35386657714844, -273.4812927246094)">
         

<path d="M0 0 C1.91 -0.01 1.91 -0.01 3.85 -0.03 C5.24 -0.03 6.63 -0.04 8.02 -0.04 C9.44 -0.05 10.87 -0.05 12.29 -0.06 C15.27 -0.07 18.25 -0.08 21.24 -0.08 C25.06 -0.08 28.88 -0.11 32.71 -0.14 C35.65 -0.16 38.59 -0.16 41.52 -0.16 C42.93 -0.17 44.34 -0.17 45.75 -0.19 C47.72 -0.2 49.69 -0.2 51.66 -0.2 C53.35 -0.2 53.35 -0.2 55.06 -0.21 C57.83 0.16 57.83 0.16 59.72 1.25 C60.83 3.16 60.83 3.16 60.83 10.16 C224.51 10.16 388.19 10.16 556.83 10.16 C556.83 7.85 556.83 5.54 556.83 3.16 C557.96 1.25 557.96 1.25 559.83 0.16 C562.53 -0.23 562.53 -0.23 565.83 -0.24 C567.68 -0.26 567.68 -0.26 569.57 -0.28 C570.92 -0.28 572.27 -0.28 573.62 -0.27 C575.01 -0.28 576.4 -0.28 577.79 -0.29 C580.71 -0.3 583.62 -0.29 586.54 -0.28 C590.25 -0.27 593.97 -0.29 597.69 -0.32 C600.56 -0.34 603.43 -0.34 606.3 -0.34 C607.67 -0.34 609.04 -0.34 610.41 -0.35 C619.31 -0.42 625.97 -0.13 632.89 5.98 C633.35 6.55 633.8 7.13 634.27 7.72 C634.74 8.3 635.22 8.88 635.7 9.48 C638.03 12.95 637.96 16.07 637.96 20.12 C637.97 21.99 637.97 21.99 637.97 23.91 C637.97 25.31 637.97 26.7 637.97 28.1 C637.97 29.58 637.97 31.06 637.97 32.53 C637.98 36.6 637.98 40.68 637.98 44.75 C637.98 49.13 637.98 53.52 637.99 57.91 C638 66.5 638 75.1 638 83.7 C638 90.68 638 97.66 638 104.65 C638.01 124.43 638.02 144.22 638.02 164 C638.02 165.6 638.02 165.6 638.02 167.23 C638.02 168.83 638.02 168.83 638.02 170.47 C638.02 187.8 638.03 205.13 638.04 222.46 C638.05 240.23 638.06 258.01 638.06 275.78 C638.06 285.77 638.06 295.75 638.07 305.74 C638.08 314.24 638.09 322.74 638.08 331.24 C638.08 335.58 638.08 339.92 638.08 344.26 C638.09 348.23 638.09 352.2 638.08 356.17 C638.08 357.61 638.08 359.05 638.09 360.49 C638.09 362.44 638.09 364.38 638.08 366.33 C638.08 367.96 638.08 367.96 638.08 369.62 C637.83 372.16 637.83 372.16 635.83 374.16 C633.03 374.39 633.03 374.39 629.51 374.36 C628.25 374.35 627 374.34 625.7 374.34 C624.38 374.32 623.07 374.3 621.71 374.29 C620.37 374.28 619.03 374.27 617.69 374.26 C614.4 374.24 611.12 374.2 607.83 374.16 C607.85 376.12 607.85 376.12 607.87 378.13 C607.97 390.44 608.04 402.76 608.09 415.08 C608.12 421.41 608.15 427.74 608.21 434.07 C608.26 440.18 608.29 446.29 608.31 452.4 C608.32 454.73 608.33 457.06 608.36 459.4 C608.4 462.66 608.4 465.92 608.4 469.18 C608.43 470.64 608.43 470.64 608.45 472.12 C608.45 473.01 608.44 473.9 608.43 474.81 C608.44 475.59 608.44 476.36 608.45 477.15 C607.83 479.16 607.83 479.16 605.91 480.76 C601.57 482.73 597.74 482.58 593.03 482.54 C592.03 482.55 591.03 482.55 590 482.56 C586.63 482.57 583.27 482.56 579.9 482.55 C577.47 482.55 575.04 482.56 572.6 482.57 C567.31 482.58 562.01 482.58 556.72 482.57 C548.84 482.56 540.97 482.57 533.09 482.58 C519.03 482.6 504.96 482.6 490.9 482.6 C478.59 482.6 466.28 482.6 453.98 482.6 C452.33 482.6 450.68 482.6 449.03 482.6 C446.54 482.6 444.06 482.61 441.57 482.61 C418.46 482.62 395.35 482.62 372.24 482.61 C371.37 482.61 370.5 482.61 369.6 482.61 C362.52 482.61 355.44 482.61 348.36 482.61 C320.75 482.6 293.13 482.6 265.51 482.63 C234.49 482.65 203.48 482.67 172.47 482.66 C169.16 482.66 165.86 482.66 162.55 482.66 C161.74 482.66 160.92 482.66 160.09 482.66 C147.79 482.65 135.48 482.66 123.18 482.68 C109.2 482.69 95.22 482.69 81.23 482.67 C73.4 482.66 65.57 482.67 57.74 482.68 C51.91 482.69 46.07 482.69 40.23 482.67 C37.86 482.66 35.49 482.67 33.12 482.68 C29.92 482.69 26.71 482.68 23.51 482.66 C22.58 482.67 21.64 482.68 20.68 482.69 C14.45 482.62 14.45 482.62 11.26 480.26 C9.62 477.85 9.34 476.63 9.35 473.73 C9.35 472.85 9.34 471.97 9.33 471.06 C9.35 470.11 9.36 469.15 9.38 468.16 C9.38 467.15 9.38 466.13 9.38 465.08 C9.38 461.73 9.41 458.38 9.44 455.02 C9.45 452.69 9.45 450.37 9.46 448.04 C9.47 441.92 9.51 435.8 9.56 429.68 C9.6 423.43 9.62 417.18 9.64 410.93 C9.68 398.68 9.75 386.42 9.83 374.16 C8.99 374.17 8.16 374.18 7.29 374.19 C4.19 374.23 1.08 374.25 -2.02 374.27 C-4.03 374.29 -6.03 374.31 -8.04 374.34 C-9.3 374.34 -10.55 374.35 -11.85 374.36 C-13.01 374.37 -14.17 374.38 -15.37 374.39 C-18.17 374.16 -18.17 374.16 -20.17 372.16 C-20.42 369.62 -20.42 369.62 -20.43 366.33 C-20.44 365.08 -20.44 363.83 -20.45 362.54 C-20.45 361.14 -20.44 359.74 -20.44 358.35 C-20.45 356.87 -20.45 355.39 -20.46 353.91 C-20.47 349.84 -20.47 345.77 -20.47 341.7 C-20.48 337.31 -20.49 332.92 -20.5 328.53 C-20.52 318.93 -20.53 309.33 -20.54 299.73 C-20.54 293.74 -20.55 287.74 -20.55 281.75 C-20.57 265.16 -20.59 248.58 -20.59 231.99 C-20.59 230.93 -20.59 229.86 -20.59 228.77 C-20.59 226.62 -20.59 224.46 -20.59 222.31 C-20.59 221.24 -20.59 220.17 -20.59 219.07 C-20.59 218 -20.59 216.93 -20.59 215.82 C-20.6 198.48 -20.62 181.14 -20.66 163.8 C-20.7 146.01 -20.72 128.21 -20.72 110.42 C-20.72 100.42 -20.73 90.43 -20.76 80.43 C-20.78 71.92 -20.79 63.41 -20.77 54.9 C-20.77 50.55 -20.77 46.21 -20.79 41.87 C-20.81 37.89 -20.81 33.91 -20.79 29.93 C-20.78 28.5 -20.79 27.06 -20.8 25.62 C-20.88 17.67 -20.81 11.21 -15.17 5.16 C-10.06 1.17 -6.4 0.04 0 0 Z " fill="#919190" transform="translate(203.16796875,273.8388671875)" style="fill:#919190;" id="__0_"/>
<path d="M0 0 C1.7 -0 3.39 -0.01 5.09 -0.02 C9.75 -0.03 14.4 -0.02 19.05 -0.01 C24.08 0 29.1 -0.01 34.12 -0.02 C43.96 -0.03 53.8 -0.02 63.63 -0.01 C75.09 0.01 86.54 0.01 98 0 C118.43 -0 138.86 0.01 159.3 0.03 C179.13 0.06 198.96 0.07 218.8 0.06 C240.39 0.04 261.98 0.04 283.58 0.06 C285.88 0.06 288.18 0.06 290.48 0.06 C292.18 0.06 292.18 0.06 293.91 0.06 C301.9 0.07 309.89 0.07 317.87 0.06 C327.6 0.06 337.33 0.06 347.06 0.08 C352.02 0.09 356.99 0.1 361.95 0.09 C366.5 0.08 371.04 0.09 375.59 0.11 C377.23 0.11 378.88 0.11 380.52 0.1 C382.75 0.1 384.99 0.11 387.22 0.12 C388.47 0.12 389.71 0.12 390.99 0.12 C397.55 0.83 402.21 3.37 406.48 8.5 C408.55 12.6 408.74 16.04 408.75 20.59 C408.75 21.29 408.76 22 408.76 22.72 C408.78 25.07 408.77 27.42 408.77 29.76 C408.78 31.45 408.79 33.13 408.79 34.82 C408.81 39.39 408.82 43.97 408.82 48.54 C408.82 51.4 408.82 54.26 408.83 57.12 C408.85 67.09 408.85 77.06 408.85 87.04 C408.85 96.33 408.87 105.62 408.9 114.92 C408.93 122.9 408.94 130.88 408.94 138.87 C408.94 143.63 408.94 148.4 408.97 153.17 C408.99 157.65 408.99 162.13 408.97 166.61 C408.97 168.26 408.97 169.9 408.99 171.54 C409 173.79 408.99 176.04 408.98 178.28 C408.98 179.54 408.98 180.8 408.98 182.09 C408.16 187.73 404.76 191.87 400.48 195.5 C396.39 197.54 392.98 197.75 388.44 197.76 C387.74 197.77 387.04 197.77 386.32 197.77 C383.96 197.78 381.61 197.78 379.26 197.78 C377.55 197.78 375.85 197.79 374.15 197.79 C369.47 197.81 364.78 197.81 360.1 197.81 C355.05 197.81 350.01 197.82 344.96 197.83 C333.92 197.86 322.88 197.86 311.84 197.87 C304.95 197.87 298.06 197.88 291.17 197.89 C272.09 197.91 253.02 197.92 233.94 197.92 C232.72 197.92 231.5 197.92 230.24 197.93 C227.77 197.93 225.29 197.93 222.81 197.93 C221.59 197.93 220.36 197.93 219.09 197.93 C217.86 197.93 216.63 197.93 215.36 197.93 C195.42 197.93 175.48 197.96 155.54 198 C135.08 198.03 114.61 198.05 94.14 198.05 C82.65 198.05 71.15 198.06 59.66 198.09 C49.88 198.12 40.09 198.12 30.3 198.11 C25.31 198.1 20.32 198.1 15.32 198.12 C10.75 198.14 6.18 198.14 1.61 198.12 C-0.04 198.12 -1.7 198.12 -3.35 198.14 C-18.26 198.26 -18.26 198.26 -24.11 193.89 C-29.65 188.42 -29.96 182.49 -30.06 174.92 C-30.07 172.59 -30.06 170.26 -30.05 167.93 C-30.06 166.25 -30.07 164.57 -30.08 162.88 C-30.1 158.33 -30.1 153.78 -30.09 149.22 C-30.08 145.41 -30.09 141.61 -30.1 137.8 C-30.11 128.82 -30.11 119.83 -30.09 110.85 C-30.08 101.59 -30.09 92.34 -30.13 83.08 C-30.15 75.12 -30.16 67.16 -30.15 59.2 C-30.15 54.45 -30.15 49.7 -30.17 44.96 C-30.19 40.49 -30.18 36.03 -30.16 31.56 C-30.15 29.93 -30.16 28.29 -30.17 26.66 C-30.28 11.03 -30.28 11.03 -26.12 6.11 C-18.91 -1.12 -9.45 -0.06 0 0 Z " fill="#01376E" transform="translate(322.51808166503906,408.49879455566406)" style="fill:#01376E;" id="__1_"/>
<path d="M0 0 C1.91 -0.01 1.91 -0.01 3.85 -0.03 C5.24 -0.03 6.63 -0.04 8.02 -0.04 C9.44 -0.05 10.87 -0.05 12.29 -0.06 C15.27 -0.07 18.25 -0.08 21.24 -0.08 C25.06 -0.08 28.88 -0.11 32.71 -0.14 C35.65 -0.16 38.59 -0.16 41.52 -0.16 C42.93 -0.17 44.34 -0.17 45.75 -0.19 C47.72 -0.2 49.69 -0.2 51.66 -0.2 C53.35 -0.2 53.35 -0.2 55.06 -0.21 C57.83 0.16 57.83 0.16 59.72 1.25 C60.83 3.16 60.83 3.16 60.83 10.16 C224.51 10.16 388.19 10.16 556.83 10.16 C556.83 7.85 556.83 5.54 556.83 3.16 C557.96 1.25 557.96 1.25 559.83 0.16 C562.53 -0.23 562.53 -0.23 565.83 -0.24 C567.68 -0.26 567.68 -0.26 569.57 -0.28 C570.92 -0.28 572.27 -0.28 573.62 -0.27 C575.01 -0.28 576.4 -0.28 577.79 -0.29 C580.71 -0.3 583.62 -0.29 586.54 -0.28 C590.25 -0.27 593.97 -0.29 597.69 -0.32 C600.56 -0.34 603.43 -0.34 606.3 -0.34 C607.67 -0.34 609.04 -0.34 610.41 -0.35 C619.31 -0.42 625.97 -0.13 632.89 5.98 C633.35 6.55 633.8 7.13 634.27 7.72 C634.74 8.3 635.22 8.88 635.7 9.48 C638.03 12.95 637.96 16.07 637.96 20.12 C637.97 21.99 637.97 21.99 637.97 23.91 C637.97 25.31 637.97 26.7 637.97 28.1 C637.97 29.58 637.97 31.06 637.97 32.53 C637.98 36.6 637.98 40.68 637.98 44.75 C637.98 49.13 637.98 53.52 637.99 57.91 C638 66.5 638 75.1 638 83.7 C638 90.68 638 97.66 638 104.65 C638.01 124.43 638.02 144.22 638.02 164 C638.02 165.6 638.02 165.6 638.02 167.23 C638.02 168.83 638.02 168.83 638.02 170.47 C638.02 187.8 638.03 205.13 638.04 222.46 C638.05 240.23 638.06 258.01 638.06 275.78 C638.06 285.77 638.06 295.75 638.07 305.74 C638.08 314.24 638.09 322.74 638.08 331.24 C638.08 335.58 638.08 339.92 638.08 344.26 C638.09 348.23 638.09 352.2 638.08 356.17 C638.08 357.61 638.08 359.05 638.09 360.49 C638.09 362.44 638.09 364.38 638.08 366.33 C638.08 367.96 638.08 367.96 638.08 369.62 C637.83 372.16 637.83 372.16 635.83 374.16 C633.03 374.39 633.03 374.39 629.51 374.36 C628.25 374.35 627 374.34 625.7 374.34 C624.38 374.32 623.07 374.3 621.71 374.29 C620.37 374.28 619.03 374.27 617.69 374.26 C614.4 374.24 611.12 374.2 607.83 374.16 C607.85 376.12 607.85 376.12 607.87 378.13 C607.97 390.44 608.04 402.76 608.09 415.08 C608.12 421.41 608.15 427.74 608.21 434.07 C608.26 440.18 608.29 446.29 608.31 452.4 C608.32 454.73 608.33 457.06 608.36 459.4 C608.4 462.66 608.4 465.92 608.4 469.18 C608.43 470.64 608.43 470.64 608.45 472.12 C608.45 473.01 608.44 473.9 608.43 474.81 C608.44 475.59 608.44 476.36 608.45 477.15 C607.83 479.16 607.83 479.16 605.91 480.76 C601.57 482.73 597.74 482.58 593.03 482.54 C592.03 482.55 591.03 482.55 590 482.56 C586.63 482.57 583.27 482.56 579.9 482.55 C577.47 482.55 575.04 482.56 572.6 482.57 C567.31 482.58 562.01 482.58 556.72 482.57 C548.84 482.56 540.97 482.57 533.09 482.58 C519.03 482.6 504.96 482.6 490.9 482.6 C478.59 482.6 466.28 482.6 453.98 482.6 C452.33 482.6 450.68 482.6 449.03 482.6 C446.54 482.6 444.06 482.61 441.57 482.61 C418.46 482.62 395.35 482.62 372.24 482.61 C371.37 482.61 370.5 482.61 369.6 482.61 C362.52 482.61 355.44 482.61 348.36 482.61 C320.75 482.6 293.13 482.6 265.51 482.63 C234.49 482.65 203.48 482.67 172.47 482.66 C169.16 482.66 165.86 482.66 162.55 482.66 C161.74 482.66 160.92 482.66 160.09 482.66 C147.79 482.65 135.48 482.66 123.18 482.68 C109.2 482.69 95.22 482.69 81.23 482.67 C73.4 482.66 65.57 482.67 57.74 482.68 C51.91 482.69 46.07 482.69 40.23 482.67 C37.86 482.66 35.49 482.67 33.12 482.68 C29.92 482.69 26.71 482.68 23.51 482.66 C22.58 482.67 21.64 482.68 20.68 482.69 C14.45 482.62 14.45 482.62 11.26 480.26 C9.62 477.85 9.34 476.63 9.35 473.73 C9.35 472.85 9.34 471.97 9.33 471.06 C9.35 470.11 9.36 469.15 9.38 468.16 C9.38 467.15 9.38 466.13 9.38 465.08 C9.38 461.73 9.41 458.38 9.44 455.02 C9.45 452.69 9.45 450.37 9.46 448.04 C9.47 441.92 9.51 435.8 9.56 429.68 C9.6 423.43 9.62 417.18 9.64 410.93 C9.68 398.68 9.75 386.42 9.83 374.16 C8.99 374.17 8.16 374.18 7.29 374.19 C4.19 374.23 1.08 374.25 -2.02 374.27 C-4.03 374.29 -6.03 374.31 -8.04 374.34 C-9.3 374.34 -10.55 374.35 -11.85 374.36 C-13.01 374.37 -14.17 374.38 -15.37 374.39 C-18.17 374.16 -18.17 374.16 -20.17 372.16 C-20.42 369.62 -20.42 369.62 -20.43 366.33 C-20.44 365.08 -20.44 363.83 -20.45 362.54 C-20.45 361.14 -20.44 359.74 -20.44 358.35 C-20.45 356.87 -20.45 355.39 -20.46 353.91 C-20.47 349.84 -20.47 345.77 -20.47 341.7 C-20.48 337.31 -20.49 332.92 -20.5 328.53 C-20.52 318.93 -20.53 309.33 -20.54 299.73 C-20.54 293.74 -20.55 287.74 -20.55 281.75 C-20.57 265.16 -20.59 248.58 -20.59 231.99 C-20.59 230.93 -20.59 229.86 -20.59 228.77 C-20.59 226.62 -20.59 224.46 -20.59 222.31 C-20.59 221.24 -20.59 220.17 -20.59 219.07 C-20.59 218 -20.59 216.93 -20.59 215.82 C-20.6 198.48 -20.62 181.14 -20.66 163.8 C-20.7 146.01 -20.72 128.21 -20.72 110.42 C-20.72 100.42 -20.73 90.43 -20.76 80.43 C-20.78 71.92 -20.79 63.41 -20.77 54.9 C-20.77 50.55 -20.77 46.21 -20.79 41.87 C-20.81 37.89 -20.81 33.91 -20.79 29.93 C-20.78 28.5 -20.79 27.06 -20.8 25.62 C-20.88 17.67 -20.81 11.21 -15.17 5.16 C-10.06 1.17 -6.4 0.04 0 0 Z M-10.17 15.16 C-10.17 21.43 -10.17 27.7 -10.17 34.16 C16.23 34.16 42.63 34.16 69.83 34.16 C69.83 37.46 69.83 40.76 69.83 44.16 C43.43 44.16 17.03 44.16 -10.17 44.16 C-10.17 48.45 -10.17 52.74 -10.17 57.16 C16.23 57.16 42.63 57.16 69.83 57.16 C69.83 60.46 69.83 63.76 69.83 67.16 C43.43 67.16 17.03 67.16 -10.17 67.16 C-10.17 71.78 -10.17 76.4 -10.17 81.16 C16.23 81.16 42.63 81.16 69.83 81.16 C69.83 84.46 69.83 87.76 69.83 91.16 C43.43 91.16 17.03 91.16 -10.17 91.16 C-10.17 95.45 -10.17 99.74 -10.17 104.16 C16.23 104.16 42.63 104.16 69.83 104.16 C69.83 107.46 69.83 110.76 69.83 114.16 C43.43 114.16 17.03 114.16 -10.17 114.16 C-10.17 196.66 -10.17 279.16 -10.17 364.16 C3.2 364.66 3.2 364.66 16.83 365.16 C42.06 390.39 19.49 436.48 19.83 472.16 C210.57 472.16 401.31 472.16 597.83 472.16 C597.83 437.18 597.83 402.2 597.83 366.16 C607.34 362.99 617.82 364.53 627.83 364.16 C627.83 281.66 627.83 199.16 627.83 114.16 C601.43 114.16 575.03 114.16 547.83 114.16 C547.83 110.86 547.83 107.56 547.83 104.16 C574.23 104.16 600.63 104.16 627.83 104.16 C627.83 99.87 627.83 95.58 627.83 91.16 C601.1 91.16 574.37 91.16 546.83 91.16 C546.83 87.86 546.83 84.56 546.83 81.16 C573.56 81.16 600.29 81.16 627.83 81.16 C627.83 76.54 627.83 71.92 627.83 67.16 C601.43 67.16 575.03 67.16 547.83 67.16 C547.83 63.86 547.83 60.56 547.83 57.16 C574.23 57.16 600.63 57.16 627.83 57.16 C627.83 52.87 627.83 48.58 627.83 44.16 C601.43 44.16 575.03 44.16 547.83 44.16 C547.83 40.86 547.83 37.56 547.83 34.16 C574.23 34.16 600.63 34.16 627.83 34.16 C629.71 17.44 629.71 17.44 623.83 11.16 C621.26 9.88 619.43 10.04 616.56 10.05 C615.46 10.05 614.35 10.05 613.22 10.05 C612.03 10.05 610.83 10.06 609.61 10.06 C608.39 10.06 607.17 10.07 605.91 10.07 C602.01 10.07 598.11 10.09 594.21 10.1 C591.57 10.1 588.93 10.11 586.29 10.11 C579.8 10.12 573.32 10.14 566.83 10.16 C566.69 11.46 566.54 12.76 566.39 14.1 C565.96 18.04 565.96 18.04 564.83 19.16 C562.17 19.32 559.53 19.42 556.86 19.48 C556.06 19.5 555.26 19.52 554.44 19.54 C551.88 19.61 549.33 19.66 546.77 19.72 C545.04 19.77 543.31 19.81 541.58 19.85 C537.33 19.96 533.08 20.06 528.83 20.16 C528.83 21.62 528.83 21.62 528.82 23.11 C528.78 32.29 528.73 41.47 528.65 50.65 C528.61 55.37 528.58 60.09 528.56 64.81 C528.55 69.36 528.51 73.92 528.46 78.48 C528.45 80.21 528.44 81.95 528.44 83.68 C528.44 86.12 528.41 88.56 528.38 91 C528.38 91.71 528.39 92.42 528.39 93.15 C528.26 99.42 526.2 104.73 521.83 109.22 C521.17 109.67 520.51 110.13 519.83 110.6 C519.17 111.07 518.51 111.54 517.83 112.03 C513.68 114.38 509.72 114.29 505.01 114.3 C504.32 114.3 503.63 114.3 502.92 114.3 C500.6 114.31 498.27 114.31 495.95 114.31 C494.28 114.31 492.6 114.32 490.92 114.32 C486.31 114.33 481.69 114.33 477.08 114.34 C472.1 114.34 467.13 114.35 462.15 114.36 C450.13 114.38 438.12 114.39 426.1 114.4 C420.44 114.4 414.78 114.41 409.13 114.41 C390.32 114.43 371.52 114.44 352.72 114.45 C347.84 114.45 342.96 114.45 338.08 114.46 C336.26 114.46 336.26 114.46 334.41 114.46 C314.75 114.47 295.09 114.49 275.44 114.52 C255.26 114.56 235.09 114.57 214.92 114.58 C203.59 114.58 192.26 114.59 180.93 114.61 C171.28 114.64 161.64 114.64 151.99 114.63 C147.07 114.63 142.15 114.63 137.22 114.65 C132.72 114.67 128.21 114.67 123.7 114.65 C122.07 114.65 120.44 114.65 118.81 114.67 C109.51 114.73 102.13 114.75 94.77 108.38 C94.32 107.81 93.86 107.25 93.39 106.66 C92.92 106.09 92.45 105.53 91.96 104.94 C89.34 100.81 89.66 96.2 89.63 91.46 C89.62 90.68 89.61 89.91 89.6 89.12 C89.57 86.58 89.54 84.03 89.52 81.49 C89.5 79.72 89.47 77.96 89.45 76.19 C89.4 71.55 89.35 66.91 89.3 62.27 C89.25 57.53 89.19 52.79 89.14 48.05 C89.03 38.75 88.93 29.46 88.83 20.16 C87.75 20.14 86.66 20.11 85.54 20.09 C81.53 19.99 77.52 19.89 73.51 19.79 C71.77 19.75 70.03 19.7 68.29 19.66 C65.79 19.61 63.3 19.54 60.8 19.48 C60.02 19.46 59.24 19.44 58.43 19.43 C52.95 19.28 52.95 19.28 51.83 18.16 C51.38 15.51 51.13 12.84 50.83 10.16 C43.11 10.03 35.39 9.95 27.66 9.89 C25.04 9.86 22.41 9.83 19.78 9.78 C16.01 9.72 12.23 9.69 8.45 9.67 C7.28 9.65 6.11 9.62 4.9 9.59 C3.8 9.59 2.7 9.59 1.56 9.59 C0.6 9.58 -0.37 9.57 -1.36 9.56 C-5.07 10.13 -5.07 10.13 -10.17 15.16 Z " fill="#01386F" transform="translate(203.16796875,273.8388671875)" style="fill:#01376E;" id="__1_"/>
<path d="M0 0 C1.91 -0.01 1.91 -0.01 3.85 -0.03 C5.24 -0.03 6.63 -0.04 8.02 -0.04 C9.44 -0.05 10.87 -0.05 12.29 -0.06 C15.27 -0.07 18.25 -0.08 21.24 -0.08 C25.06 -0.08 28.88 -0.11 32.71 -0.14 C35.65 -0.16 38.59 -0.16 41.52 -0.16 C42.93 -0.17 44.34 -0.17 45.75 -0.19 C47.72 -0.2 49.69 -0.2 51.66 -0.2 C53.35 -0.2 53.35 -0.2 55.06 -0.21 C57.83 0.16 57.83 0.16 59.72 1.25 C60.83 3.16 60.83 3.16 60.83 10.16 C224.51 10.16 388.19 10.16 556.83 10.16 C556.83 7.85 556.83 5.54 556.83 3.16 C557.96 1.25 557.96 1.25 559.83 0.16 C562.53 -0.23 562.53 -0.23 565.83 -0.24 C567.68 -0.26 567.68 -0.26 569.57 -0.28 C570.92 -0.28 572.27 -0.28 573.62 -0.27 C575.01 -0.28 576.4 -0.28 577.79 -0.29 C580.71 -0.3 583.62 -0.29 586.54 -0.28 C590.25 -0.27 593.97 -0.29 597.69 -0.32 C600.56 -0.34 603.43 -0.34 606.3 -0.34 C607.67 -0.34 609.04 -0.34 610.41 -0.35 C619.31 -0.42 625.97 -0.13 632.89 5.98 C633.35 6.55 633.8 7.13 634.27 7.72 C634.74 8.3 635.22 8.88 635.7 9.48 C638.03 12.95 637.96 16.07 637.96 20.12 C637.97 21.99 637.97 21.99 637.97 23.91 C637.97 25.31 637.97 26.7 637.97 28.1 C637.97 29.58 637.97 31.06 637.97 32.53 C637.98 36.6 637.98 40.68 637.98 44.75 C637.98 49.13 637.98 53.52 637.99 57.91 C638 66.5 638 75.1 638 83.7 C638 90.68 638 97.66 638 104.65 C638.01 124.43 638.02 144.22 638.02 164 C638.02 165.6 638.02 165.6 638.02 167.23 C638.02 168.83 638.02 168.83 638.02 170.47 C638.02 187.8 638.03 205.13 638.04 222.46 C638.05 240.23 638.06 258.01 638.06 275.78 C638.06 285.77 638.06 295.75 638.07 305.74 C638.08 314.24 638.09 322.74 638.08 331.24 C638.08 335.58 638.08 339.92 638.08 344.26 C638.09 348.23 638.09 352.2 638.08 356.17 C638.08 357.61 638.08 359.05 638.09 360.49 C638.09 362.44 638.09 364.38 638.08 366.33 C638.08 367.96 638.08 367.96 638.08 369.62 C637.83 372.16 637.83 372.16 635.83 374.16 C633.03 374.39 633.03 374.39 629.51 374.36 C628.25 374.35 627 374.34 625.7 374.34 C624.38 374.32 623.07 374.3 621.71 374.29 C620.37 374.28 619.03 374.27 617.69 374.26 C614.4 374.24 611.12 374.2 607.83 374.16 C607.85 376.12 607.85 376.12 607.87 378.13 C607.97 390.44 608.04 402.76 608.09 415.08 C608.12 421.41 608.15 427.74 608.21 434.07 C608.26 440.18 608.29 446.29 608.31 452.4 C608.32 454.73 608.33 457.06 608.36 459.4 C608.4 462.66 608.4 465.92 608.4 469.18 C608.43 470.64 608.43 470.64 608.45 472.12 C608.45 473.01 608.44 473.9 608.43 474.81 C608.44 475.59 608.44 476.36 608.45 477.15 C607.83 479.16 607.83 479.16 605.91 480.76 C601.57 482.73 597.74 482.58 593.03 482.54 C592.03 482.55 591.03 482.55 590 482.56 C586.63 482.57 583.27 482.56 579.9 482.55 C577.47 482.55 575.04 482.56 572.6 482.57 C567.31 482.58 562.01 482.58 556.72 482.57 C548.84 482.56 540.97 482.57 533.09 482.58 C519.03 482.6 504.96 482.6 490.9 482.6 C478.59 482.6 466.28 482.6 453.98 482.6 C452.33 482.6 450.68 482.6 449.03 482.6 C446.54 482.6 444.06 482.61 441.57 482.61 C418.46 482.62 395.35 482.62 372.24 482.61 C371.37 482.61 370.5 482.61 369.6 482.61 C362.52 482.61 355.44 482.61 348.36 482.61 C320.75 482.6 293.13 482.6 265.51 482.63 C234.49 482.65 203.48 482.67 172.47 482.66 C169.16 482.66 165.86 482.66 162.55 482.66 C161.74 482.66 160.92 482.66 160.09 482.66 C147.79 482.65 135.48 482.66 123.18 482.68 C109.2 482.69 95.22 482.69 81.23 482.67 C73.4 482.66 65.57 482.67 57.74 482.68 C51.91 482.69 46.07 482.69 40.23 482.67 C37.86 482.66 35.49 482.67 33.12 482.68 C29.92 482.69 26.71 482.68 23.51 482.66 C22.58 482.67 21.64 482.68 20.68 482.69 C14.45 482.62 14.45 482.62 11.26 480.26 C9.62 477.85 9.34 476.63 9.35 473.73 C9.35 472.85 9.34 471.97 9.33 471.06 C9.35 470.11 9.36 469.15 9.38 468.16 C9.38 467.15 9.38 466.13 9.38 465.08 C9.38 461.73 9.41 458.38 9.44 455.02 C9.45 452.69 9.45 450.37 9.46 448.04 C9.47 441.92 9.51 435.8 9.56 429.68 C9.6 423.43 9.62 417.18 9.64 410.93 C9.68 398.68 9.75 386.42 9.83 374.16 C8.99 374.17 8.16 374.18 7.29 374.19 C4.19 374.23 1.08 374.25 -2.02 374.27 C-4.03 374.29 -6.03 374.31 -8.04 374.34 C-9.3 374.34 -10.55 374.35 -11.85 374.36 C-13.01 374.37 -14.17 374.38 -15.37 374.39 C-18.17 374.16 -18.17 374.16 -20.17 372.16 C-20.42 369.62 -20.42 369.62 -20.43 366.33 C-20.44 365.08 -20.44 363.83 -20.45 362.54 C-20.45 361.14 -20.44 359.74 -20.44 358.35 C-20.45 356.87 -20.45 355.39 -20.46 353.91 C-20.47 349.84 -20.47 345.77 -20.47 341.7 C-20.48 337.31 -20.49 332.92 -20.5 328.53 C-20.52 318.93 -20.53 309.33 -20.54 299.73 C-20.54 293.74 -20.55 287.74 -20.55 281.75 C-20.57 265.16 -20.59 248.58 -20.59 231.99 C-20.59 230.93 -20.59 229.86 -20.59 228.77 C-20.59 226.62 -20.59 224.46 -20.59 222.31 C-20.59 221.24 -20.59 220.17 -20.59 219.07 C-20.59 218 -20.59 216.93 -20.59 215.82 C-20.6 198.48 -20.62 181.14 -20.66 163.8 C-20.7 146.01 -20.72 128.21 -20.72 110.42 C-20.72 100.42 -20.73 90.43 -20.76 80.43 C-20.78 71.92 -20.79 63.41 -20.77 54.9 C-20.77 50.55 -20.77 46.21 -20.79 41.87 C-20.81 37.89 -20.81 33.91 -20.79 29.93 C-20.78 28.5 -20.79 27.06 -20.8 25.62 C-20.88 17.67 -20.81 11.21 -15.17 5.16 C-10.06 1.17 -6.4 0.04 0 0 Z M-10.17 15.16 C-10.17 21.43 -10.17 27.7 -10.17 34.16 C16.23 34.16 42.63 34.16 69.83 34.16 C69.83 37.46 69.83 40.76 69.83 44.16 C43.43 44.16 17.03 44.16 -10.17 44.16 C-10.17 48.45 -10.17 52.74 -10.17 57.16 C16.23 57.16 42.63 57.16 69.83 57.16 C69.83 60.46 69.83 63.76 69.83 67.16 C43.43 67.16 17.03 67.16 -10.17 67.16 C-10.17 71.78 -10.17 76.4 -10.17 81.16 C16.23 81.16 42.63 81.16 69.83 81.16 C69.83 84.46 69.83 87.76 69.83 91.16 C43.43 91.16 17.03 91.16 -10.17 91.16 C-10.17 95.45 -10.17 99.74 -10.17 104.16 C16.23 104.16 42.63 104.16 69.83 104.16 C69.83 107.46 69.83 110.76 69.83 114.16 C43.43 114.16 17.03 114.16 -10.17 114.16 C-10.17 196.66 -10.17 279.16 -10.17 364.16 C3.2 364.66 3.2 364.66 16.83 365.16 C42.06 390.39 19.49 436.48 19.83 472.16 C210.57 472.16 401.31 472.16 597.83 472.16 C597.83 437.18 597.83 402.2 597.83 366.16 C607.34 362.99 617.82 364.53 627.83 364.16 C627.83 281.66 627.83 199.16 627.83 114.16 C601.43 114.16 575.03 114.16 547.83 114.16 C547.83 110.86 547.83 107.56 547.83 104.16 C574.23 104.16 600.63 104.16 627.83 104.16 C627.83 99.87 627.83 95.58 627.83 91.16 C601.1 91.16 574.37 91.16 546.83 91.16 C546.83 87.86 546.83 84.56 546.83 81.16 C573.56 81.16 600.29 81.16 627.83 81.16 C627.83 76.54 627.83 71.92 627.83 67.16 C601.43 67.16 575.03 67.16 547.83 67.16 C547.83 63.86 547.83 60.56 547.83 57.16 C574.23 57.16 600.63 57.16 627.83 57.16 C627.83 52.87 627.83 48.58 627.83 44.16 C601.43 44.16 575.03 44.16 547.83 44.16 C547.83 40.86 547.83 37.56 547.83 34.16 C574.23 34.16 600.63 34.16 627.83 34.16 C629.71 17.44 629.71 17.44 623.83 11.16 C621.26 9.88 619.43 10.04 616.56 10.05 C615.46 10.05 614.35 10.05 613.22 10.05 C612.03 10.05 610.83 10.06 609.61 10.06 C608.39 10.06 607.17 10.07 605.91 10.07 C602.01 10.07 598.11 10.09 594.21 10.1 C591.57 10.1 588.93 10.11 586.29 10.11 C579.8 10.12 573.32 10.14 566.83 10.16 C566.69 11.46 566.54 12.76 566.39 14.1 C565.96 18.04 565.96 18.04 564.83 19.16 C562.17 19.32 559.53 19.42 556.86 19.48 C556.06 19.5 555.26 19.52 554.44 19.54 C551.88 19.61 549.33 19.66 546.77 19.72 C545.04 19.77 543.31 19.81 541.58 19.85 C537.33 19.96 533.08 20.06 528.83 20.16 C528.83 21.62 528.83 21.62 528.82 23.11 C528.78 32.29 528.73 41.47 528.65 50.65 C528.61 55.37 528.58 60.09 528.56 64.81 C528.55 69.36 528.51 73.92 528.46 78.48 C528.45 80.21 528.44 81.95 528.44 83.68 C528.44 86.12 528.41 88.56 528.38 91 C528.38 91.71 528.39 92.42 528.39 93.15 C528.26 99.42 526.2 104.73 521.83 109.22 C521.17 109.67 520.51 110.13 519.83 110.6 C519.17 111.07 518.51 111.54 517.83 112.03 C513.68 114.38 509.72 114.29 505.01 114.3 C504.32 114.3 503.63 114.3 502.92 114.3 C500.6 114.31 498.27 114.31 495.95 114.31 C494.28 114.31 492.6 114.32 490.92 114.32 C486.31 114.33 481.69 114.33 477.08 114.34 C472.1 114.34 467.13 114.35 462.15 114.36 C450.13 114.38 438.12 114.39 426.1 114.4 C420.44 114.4 414.78 114.41 409.13 114.41 C390.32 114.43 371.52 114.44 352.72 114.45 C347.84 114.45 342.96 114.45 338.08 114.46 C336.26 114.46 336.26 114.46 334.41 114.46 C314.75 114.47 295.09 114.49 275.44 114.52 C255.26 114.56 235.09 114.57 214.92 114.58 C203.59 114.58 192.26 114.59 180.93 114.61 C171.28 114.64 161.64 114.64 151.99 114.63 C147.07 114.63 142.15 114.63 137.22 114.65 C132.72 114.67 128.21 114.67 123.7 114.65 C122.07 114.65 120.44 114.65 118.81 114.67 C109.51 114.73 102.13 114.75 94.77 108.38 C94.32 107.81 93.86 107.25 93.39 106.66 C92.92 106.09 92.45 105.53 91.96 104.94 C89.34 100.81 89.66 96.2 89.63 91.46 C89.62 90.68 89.61 89.91 89.6 89.12 C89.57 86.58 89.54 84.03 89.52 81.49 C89.5 79.72 89.47 77.96 89.45 76.19 C89.4 71.55 89.35 66.91 89.3 62.27 C89.25 57.53 89.19 52.79 89.14 48.05 C89.03 38.75 88.93 29.46 88.83 20.16 C87.75 20.14 86.66 20.11 85.54 20.09 C81.53 19.99 77.52 19.89 73.51 19.79 C71.77 19.75 70.03 19.7 68.29 19.66 C65.79 19.61 63.3 19.54 60.8 19.48 C60.02 19.46 59.24 19.44 58.43 19.43 C52.95 19.28 52.95 19.28 51.83 18.16 C51.38 15.51 51.13 12.84 50.83 10.16 C43.11 10.03 35.39 9.95 27.66 9.89 C25.04 9.86 22.41 9.83 19.78 9.78 C16.01 9.72 12.23 9.69 8.45 9.67 C7.28 9.65 6.11 9.62 4.9 9.59 C3.8 9.59 2.7 9.59 1.56 9.59 C0.6 9.58 -0.37 9.57 -1.36 9.56 C-5.07 10.13 -5.07 10.13 -10.17 15.16 Z M510.06 19.05 C509 19.05 509 19.05 507.91 19.06 C505.52 19.06 503.12 19.07 500.72 19.08 C499 19.08 497.27 19.09 495.54 19.09 C490.78 19.1 486.02 19.11 481.26 19.13 C476.13 19.15 471.01 19.16 465.88 19.17 C456.99 19.19 448.1 19.21 439.21 19.24 C426.36 19.28 413.5 19.31 400.65 19.34 C379.8 19.4 358.94 19.45 338.09 19.51 C317.83 19.57 297.57 19.63 277.31 19.68 C275.44 19.68 275.44 19.68 273.53 19.69 C267.27 19.71 261.01 19.72 254.75 19.74 C202.78 19.87 150.8 20.01 98.83 20.16 C98.76 30.24 98.71 40.33 98.68 50.41 C98.66 55.09 98.64 59.78 98.61 64.46 C98.57 68.98 98.56 73.5 98.55 78.02 C98.54 79.74 98.53 81.46 98.51 83.19 C98.49 85.6 98.49 88.02 98.49 90.43 C98.48 91.14 98.47 91.86 98.46 92.59 C98.49 96.96 99.14 99.7 101.83 103.16 C109.37 108.19 121.04 106.31 129.86 106.3 C131.5 106.3 133.13 106.31 134.76 106.31 C139.23 106.32 143.7 106.32 148.17 106.32 C152.99 106.32 157.82 106.33 162.65 106.34 C173.19 106.35 183.73 106.36 194.28 106.36 C200.86 106.36 207.44 106.37 214.03 106.37 C232.25 106.39 250.48 106.4 268.71 106.4 C270.46 106.4 270.46 106.4 272.25 106.4 C274 106.4 274 106.4 275.79 106.4 C278.15 106.4 280.52 106.4 282.89 106.4 C284.65 106.4 284.65 106.4 286.45 106.4 C305.5 106.41 324.54 106.42 343.59 106.45 C363.15 106.47 382.71 106.48 402.27 106.48 C413.25 106.48 424.23 106.49 435.21 106.51 C444.56 106.52 453.9 106.53 463.25 106.52 C468.02 106.52 472.79 106.52 477.56 106.53 C481.92 106.54 486.28 106.54 490.65 106.53 C492.23 106.53 493.81 106.53 495.39 106.54 C497.53 106.55 499.68 106.55 501.83 106.53 C503.62 106.53 503.62 106.53 505.44 106.53 C510.3 106 514.44 104.76 517.75 100.96 C519.13 97.4 519.23 94.19 519.17 90.43 C519.17 89.29 519.17 89.29 519.17 88.13 C519.17 85.62 519.15 83.12 519.12 80.61 C519.12 78.87 519.12 77.13 519.11 75.39 C519.1 70.81 519.07 66.24 519.04 61.66 C519.01 56.99 518.99 52.32 518.98 47.64 C518.95 38.48 518.9 29.32 518.83 20.16 C515.9 18.7 513.33 19.04 510.06 19.05 Z " fill="#060708" transform="translate(203.16796875,273.8388671875)" style="fill:#060708;" id="__2_"/>
<path d="M0 0 C10.23 0 20.46 0 31 0 C31 4.29 31 8.58 31 13 C28.36 13 25.72 13 23 13 C23 14.98 23 16.96 23 19 C24.2 19.1 25.39 19.21 26.62 19.31 C30.57 19.79 33.5 21.08 37 23 C37.66 23 38.32 23 39 23 C40.39 21.38 41.71 19.7 43 18 C44.29 16.3 45.61 14.62 47 13 C49 13 49 13 51.31 15.12 C54 18 56.51 20.95 59 24 C54.55 28.45 54.55 28.45 50 33 C51.05 35.1 52.11 37.2 53.22 39.26 C59.19 50.57 60.64 61.94 57.82 74.52 C53.77 86.73 44.59 95.35 33.54 101.33 C23.73 105.6 11.06 105.76 0.94 102.38 C-11.5 96.93 -19.91 88.63 -25 76 C-28.47 65.69 -28.65 53.01 -24 43 C-17.6 31.13 -8.48 23.77 4 19 C6.93 18.81 6.93 18.81 9 19 C9 17.02 9 15.04 9 13 C6.03 13 3.06 13 0 13 C0 8.71 0 4.42 0 0 Z " fill="#F2D748" transform="translate(392,451)" style="fill:#F2D748;" id="__3_"/>
<path d="M0 0 C16.5 0 33 0 50 0 C50 1.65 50 3.3 50 5 C55.28 5 60.56 5 66 5 C66 15.5 65.11 22.93 58 31 C53.15 35.19 48.24 37.39 42.14 39.14 C39 40.4 36.88 42.44 34.51 44.79 C33 46 33 46 30 46 C30 49.3 30 52.6 30 56 C31.07 56.08 32.14 56.16 33.25 56.25 C37.36 57.07 38.62 57.62 41 61 C41.5 63.97 41.5 63.97 42 67 C30.78 67 19.56 67 8 67 C8 61.55 8.45 60.76 12 57 C14.71 55.65 17.01 55.93 20 56 C20 52.7 20 49.4 20 46 C19.32 45.96 18.64 45.92 17.94 45.88 C14.9 44.97 13.99 44.23 11.75 42.12 C9.1 39.7 7.01 38.49 3.56 37.5 C-4.09 35.2 -8.58 31.4 -12.44 24.38 C-15.3 18.19 -15.84 12.77 -16 6 C-10.72 6 -5.44 6 0 6 C0 4.02 0 2.04 0 0 Z " fill="#F3D848" transform="translate(503,474)" style="fill:#F2D748;" id="__3_"/>
<path d="M0 0 C9.72 3.69 15.56 10.44 20.08 19.61 C22.62 27.58 21.83 37.57 18.24 45.07 C13.38 53.27 7.13 58.43 -2.07 61.28 C-10.66 62.65 -19.71 62.29 -27.07 57.28 C-33.99 52.15 -38.7 46.7 -41.07 38.28 C-42.1 27.46 -41.15 18.29 -34.45 9.53 C-25.28 -0.39 -12.82 -3 0 0 Z " fill="#04386E" transform="translate(418.0703125,481.71875)" style="fill:#01376E;" id="__1_"/>
<path d="M0 0 C75.57 0 151.14 0 229 0 C229 3.63 229 7.26 229 11 C153.76 11 78.52 11 1 11 C0.67 7.37 0.34 3.74 0 0 Z " fill="#04CAD0" transform="translate(331,322)" style="fill:#04CAD0;" id="__4_"/>
<path d="M0 0 C30.03 0 60.06 0 91 0 C89.28 3.45 88.21 5.03 85.56 7.6 C84.56 8.58 84.56 8.58 83.54 9.59 C82.85 10.26 82.15 10.93 81.44 11.62 C80.06 12.97 78.68 14.32 77.31 15.66 C76.7 16.26 76.09 16.85 75.46 17.46 C73.9 18.95 73.9 18.95 73 21 C72.34 21 71.68 21 71 21 C71 21.66 71 22.32 71 23 C70.34 23 69.68 23 69 23 C69 23.66 69 24.32 69 25 C67.5 26.44 67.5 26.44 65.56 28 C62.85 30.15 62.85 30.15 61 33 C60.34 33 59.68 33 59 33 C59 33.66 59 34.32 59 35 C58.34 35 57.68 35 57 35 C56.76 35.57 56.51 36.14 56.26 36.73 C54.79 39.38 53.05 41.15 50.88 43.25 C50.15 43.96 49.43 44.66 48.68 45.39 C48.13 45.92 47.57 46.45 47 47 C44.11 45.7 42.18 44.39 40.06 42.04 C39.49 41.41 38.92 40.79 38.33 40.15 C37.7 39.46 37.08 38.77 36.44 38.06 C27.5 28.37 18.16 19.1 8.79 9.83 C8.21 9.25 7.63 8.67 7.03 8.08 C5.93 6.98 4.82 5.89 3.71 4.8 C2.45 3.55 1.22 2.28 0 1 C0 0.67 0 0.34 0 0 Z " fill="#8F8F8F" transform="translate(466,644)" style="fill:#919190;" id="__0_"/>
<path d="M0 0 C44.22 0 88.44 0 134 0 C134 3.96 134 7.92 134 12 C89.78 12 45.56 12 0 12 C0 8.04 0 4.08 0 0 Z " fill="#F0D649" transform="translate(331,341)" style="fill:#F2D748;" id="__3_"/>
<path d="M0 0 C24.75 0 49.5 0 75 0 C75 3.96 75 7.92 75 12 C50.25 12 25.5 12 0 12 C0 8.04 0 4.08 0 0 Z " fill="#04C4CC" transform="translate(601,541)" style="fill:#04CAD0;" id="__4_"/>
<path d="M0 0 C24.75 0 49.5 0 75 0 C75 3.96 75 7.92 75 12 C50.25 12 25.5 12 0 12 C0 8.04 0 4.08 0 0 Z " fill="#F0D649" transform="translate(601,521)" style="fill:#F2D748;" id="__3_"/>
<path d="M0 0 C24.75 0 49.5 0 75 0 C75 3.96 75 7.92 75 12 C50.25 12 25.5 12 0 12 C0 8.04 0 4.08 0 0 Z " fill="#04C3CC" transform="translate(601,465)" style="fill:#04CAD0;" id="__4_"/>
<path d="M0 0 C30.03 0 60.06 0 91 0 C89.28 3.45 88.21 5.03 85.56 7.6 C84.56 8.58 84.56 8.58 83.54 9.59 C82.85 10.26 82.15 10.93 81.44 11.62 C80.06 12.97 78.68 14.32 77.31 15.66 C76.7 16.26 76.09 16.85 75.46 17.46 C73.9 18.95 73.9 18.95 73 21 C72.34 21 71.68 21 71 21 C71 21.66 71 22.32 71 23 C70.34 23 69.68 23 69 23 C69 23.66 69 24.32 69 25 C67.5 26.44 67.5 26.44 65.56 28 C62.85 30.15 62.85 30.15 61 33 C60.34 33 59.68 33 59 33 C59 33.66 59 34.32 59 35 C58.34 35 57.68 35 57 35 C56.76 35.57 56.51 36.14 56.26 36.73 C54.79 39.38 53.05 41.15 50.88 43.25 C50.15 43.96 49.43 44.66 48.68 45.39 C48.13 45.92 47.57 46.45 47 47 C44.11 45.7 42.18 44.39 40.06 42.04 C39.49 41.41 38.92 40.79 38.33 40.15 C37.7 39.46 37.08 38.77 36.44 38.06 C27.5 28.37 18.16 19.1 8.79 9.83 C8.21 9.25 7.63 8.67 7.03 8.08 C5.93 6.98 4.82 5.89 3.71 4.8 C2.45 3.55 1.22 2.28 0 1 C0 0.67 0 0.34 0 0 Z M9 3 C10.72 6.44 11.82 8.06 14.44 10.67 C15.14 11.37 15.84 12.07 16.56 12.79 C17.32 13.53 18.07 14.28 18.85 15.05 C19.63 15.82 20.4 16.59 21.2 17.38 C23.67 19.84 26.15 22.3 28.62 24.75 C30.3 26.42 31.98 28.09 33.66 29.75 C37.77 33.84 41.88 37.92 46 42 C47.11 41.06 48.22 40.11 49.32 39.17 C49.94 38.64 50.56 38.12 51.19 37.58 C57.63 31.96 63.5 25.69 69.03 19.19 C73.47 14.25 78.27 9.66 83 5 C82.5 4.01 82.5 4.01 82 3 C57.91 3 33.82 3 9 3 Z " fill="#4F5656" transform="translate(466,644)" style="fill:#4F5656;" id="__5_"/>
<path d="M0 0 C17.49 0 34.98 0 53 0 C53 3.96 53 7.92 53 12 C35.51 12 18.02 12 0 12 C0 8.04 0 4.08 0 0 Z " fill="#EED549" transform="translate(601,485)" style="fill:#F2D748;" id="__3_"/>
<path d="M0 0 C3.96 0 7.92 0 12 0 C12 5.94 12 11.88 12 18 C16.29 18 20.58 18 25 18 C25 21.63 25 25.26 25 29 C16.75 29 8.5 29 0 29 C0 19.43 0 9.86 0 0 Z " fill="#EFD649" transform="translate(402,489)" style="fill:#F2D748;" id="__3_"/>
<path d="M0 0 C10.23 0 20.46 0 31 0 C31 3.96 31 7.92 31 12 C20.77 12 10.54 12 0 12 C0 8.04 0 4.08 0 0 Z " fill="#04BFC9" transform="translate(476,341)" style="fill:#04CAD0;" id="__4_"/>
<path d="M0 0 C0 3.96 0 7.92 0 12 C-4 11 -4 11 -6.56 9.88 C-9.09 8.69 -9.09 8.69 -12 10 C-16.88 5.25 -16.88 5.25 -18 3 C-18.99 2.34 -19.98 1.68 -21 1 C-18.44 0.83 -15.88 0.67 -13.31 0.5 C-12.59 0.45 -11.87 0.4 -11.13 0.36 C-7.4 0.12 -3.74 0 0 0 Z " fill="#04CDD3" transform="translate(507,341)" style="fill:#04CAD0;" id="__4_"/>
<path d="M0 0 C1.24 0.02 1.24 0.02 2.5 0.04 C3.32 0.04 4.15 0.05 5 0.06 C5.64 0.07 6.28 0.09 6.93 0.1 C6.11 7.38 3.61 12.35 -2.07 17.1 C-4.8 18.32 -4.8 18.32 -7.07 19.1 C-6.43 16.12 -5.78 13.14 -5.13 10.16 C-4.95 9.31 -4.76 8.46 -4.58 7.58 C-4.4 6.78 -4.22 5.97 -4.04 5.13 C-3.8 4.01 -3.8 4.01 -3.55 2.86 C-2.86 0.35 -2.64 0.12 0 0 Z " fill="#0D3D6D" transform="translate(555.06640625,485.90234375)" style="fill:#01376E;" id="__1_"/>
<path d="M0 0 C2.97 0 5.94 0 9 0 C9.2 1.04 9.41 2.07 9.62 3.14 C9.89 4.51 10.17 5.88 10.44 7.25 C10.57 7.93 10.71 8.61 10.85 9.32 C11.49 12.56 12.15 15.8 13 19 C7.77 17.62 5.05 14.24 2 10 C-0.01 6.51 -0.18 4.03 0 0 Z " fill="#14406B" transform="translate(495,486)" style="fill:#01376E;" id="__1_"/>

       </g>
     </svg>